<svg xmlns="http://www.w3.org/2000/svg" xmlns:xlink="http://www.w3.org/1999/xlink" width="51" height="18" viewBox="0 0 51 18">
  <defs>
    <clipPath id="clip-logo-calque">
      <rect width="51" height="18"/>
    </clipPath>
  </defs>
  <g id="logo-calque" clip-path="url(#clip-logo-calque)">    
    <path id="Path_1" data-name="Path 1" d="M8.569-8.666l-.94,1.644a2.9,2.9,0,0,0-2.074-.729,2.484,2.484,0,0,0-1.973.831,3.378,3.378,0,0,0-.725,2.3q0,2.962,2.821,2.962A3.187,3.187,0,0,0,7.831-2.47L8.64-.738A5.576,5.576,0,0,1,6.965.018,7.93,7.93,0,0,1,5.273.176a4.631,4.631,0,0,1-3.441-1.27A4.789,4.789,0,0,1,.571-4.623a4.844,4.844,0,0,1,1.38-3.595A5.1,5.1,0,0,1,5.713-9.589,4.583,4.583,0,0,1,8.569-8.666ZM14.646-.94a2.127,2.127,0,0,1-1.042.8,3.966,3.966,0,0,1-1.551.312,3.51,3.51,0,0,1-2.391-.76,2.712,2.712,0,0,1-.87-2.158A3.022,3.022,0,0,1,10.018-5.3,5.7,5.7,0,0,1,13.5-6.223a3.848,3.848,0,0,1,.914.132q0-1.661-2.1-1.661a4.655,4.655,0,0,0-2.074.413L9.768-9.044a6.175,6.175,0,0,1,2.7-.545,4.373,4.373,0,0,1,3.155.98q1,.98,1,3.713v2.013q0,1.881.756,2.364a1.183,1.183,0,0,1-.606.584,2.445,2.445,0,0,1-.765.11,1.22,1.22,0,0,1-.853-.352A1.794,1.794,0,0,1,14.646-.94ZM14.435-4.43a4.669,4.669,0,0,0-.844-.114q-2.6,0-2.6,1.705,0,1.266,1.468,1.266a1.748,1.748,0,0,0,1.978-1.978Zm3.949-8.49,2.2-.527V-2.865q0,1.74,1.037,2.074a1.805,1.805,0,0,1-1.74.967q-1.494,0-1.494-2.074ZM28.442,3.691V-.264a4.517,4.517,0,0,1-2.18.439,4.168,4.168,0,0,1-3.217-1.252,5.013,5.013,0,0,1-1.16-3.538A4.936,4.936,0,0,1,23.217-8.24a4.58,4.58,0,0,1,3.406-1.349,3.674,3.674,0,0,1,2.232.738l.36-.562h1.424v13.1Zm0-10.872A2.175,2.175,0,0,0,26.9-7.726a2.5,2.5,0,0,0-2.008.848,3.365,3.365,0,0,0-.725,2.263q0,2.936,2.663,2.936a2.678,2.678,0,0,0,1.608-.457ZM37.911.009V-.782a3.972,3.972,0,0,1-1.283.677,4.65,4.65,0,0,1-1.5.281q-3.278,0-3.278-3.48V-9.413h2.2v5.941q0,1.811,1.626,1.811a2.642,2.642,0,0,0,1.389-.387,1.965,1.965,0,0,0,.853-.9V-9.413h2.2V.009ZM49.894-4.034H43.17a2.387,2.387,0,0,0,.773,1.749,2.8,2.8,0,0,0,1.916.624,3.1,3.1,0,0,0,2.285-.782L49-.765a5.413,5.413,0,0,1-3.463.94,4.584,4.584,0,0,1-3.406-1.261,4.778,4.778,0,0,1-1.252-3.52,4.882,4.882,0,0,1,1.375-3.6,4.494,4.494,0,0,1,3.3-1.38,4.479,4.479,0,0,1,3.287,1.222,4.183,4.183,0,0,1,1.239,3.111A6.138,6.138,0,0,1,49.894-4.034ZM43.249-5.687h4.623a2.065,2.065,0,0,0-2.285-2.065A2.262,2.262,0,0,0,43.249-5.687Z" transform="translate(0 14)" fill="#f1f1f1"/>
  </g>
</svg>
